<svg width="365" height="152" viewBox="0 0 365 152" fill="none" xmlns="http://www.w3.org/2000/svg">
<path d="M321.335 102.556L321.335 62.9416L350.67 62.9416L350.67 36.4095L321.335 36.4095L321.335 0.649475L289.43 5.7056L289.43 102.99C289.43 110.266 290.097 116.907 291.465 122.898C292.817 128.888 295.203 133.994 298.641 138.199C302.061 142.404 306.634 145.692 312.341 148.045C318.047 150.398 325.256 151.582 333.967 151.582C340.825 151.582 346.599 151.015 351.304 149.864C356.01 148.729 360.299 147.36 364.153 145.792L359.648 120.962C356.644 122.113 353.34 122.998 349.686 123.632C346.048 124.266 342.51 124.6 339.09 124.6C331.948 124.6 327.209 122.597 324.856 118.609C322.503 114.621 321.335 109.264 321.335 102.556Z" fill="white"/>
<path d="M92.0228 149.012C97.8966 136.614 103.704 123.699 109.411 110.282C115.117 96.866 120.541 83.5999 125.68 70.4674C130.82 57.3348 135.542 44.7863 139.881 32.8218C144.203 20.8239 148.024 10.1109 151.345 0.649476L115.785 0.649476C112.998 9.29328 109.894 18.5545 106.507 28.4498C103.103 38.3618 99.6487 48.2405 96.1278 58.069C92.6068 67.9143 89.186 77.3257 85.882 86.3366C82.578 95.3475 79.5243 103.107 76.7376 109.615C73.784 103.057 70.6803 95.2808 67.4597 86.2698C64.2225 77.2589 60.8517 67.8308 57.3308 58.0023C53.8098 48.1737 50.339 38.2951 46.9349 28.3998C43.5307 18.4877 40.4437 9.24322 37.6736 0.649475L0.845703 0.649475C3.99952 10.0609 7.73738 20.7738 12.076 32.7717C16.4146 44.7696 21.1536 57.3181 26.3266 70.434C31.4995 83.5499 36.9561 96.8159 42.6964 110.216C48.4367 123.615 54.2604 136.547 60.1675 149.012L92.0228 149.012Z" fill="white"/>
<path d="M278.9 0.649475L246.995 5.7056L246.995 149.012L278.9 149.012L278.9 0.649475Z" fill="white"/>
<path d="M238.084 94.1967C238.084 62.2747 212.202 36.3933 180.28 36.3933C167.114 36.3933 154.983 40.7987 145.271 48.191C142.568 55.4164 139.731 62.8254 136.744 70.4346C132.439 81.4145 127.95 92.5113 123.245 103.692C127.8 131.108 151.596 152 180.28 152C212.202 152 238.084 126.119 238.084 94.1967ZM209.149 94.1967C209.149 109.999 196.333 122.815 180.531 122.815C164.728 122.815 151.913 109.999 151.913 94.1967C151.913 78.3942 164.728 65.5787 180.531 65.5787C196.333 65.5787 209.149 78.3942 209.149 94.1967Z" fill="white"/>
</svg>
